<svg xmlns="http://www.w3.org/2000/svg" version="1.1" xmlns:xlink="http://www.w3.org/1999/xlink" width="510.359211326763" height="200" viewBox="-0.17777575552463531 11.805856704711914 93.10543823242188 30.405046463012695"><path d="M2.64 36.80C2.64 36.96 2.64 37.12 2.64 37.28C2.60 37.48 2.44 37.56 2.36 37.44C2.28 37.36 2.24 37.16 2.32 37.08C2.36 36.96 2.56 36.92 2.68 36.84C2.64 35.84 3.08 35 3.60 34.20C4.04 33.52 4.36 32.84 4.76 32.16C4.88 31.92 5.12 31.88 5.44 32.04C6.52 32.64 7.48 33.32 8.12 34.48C8.36 34.92 8.72 35.32 9.08 35.68C9.76 36.36 10.44 37.08 11.20 37.60C12.52 38.48 13.92 39.16 15.44 39.60C16.48 39.92 17.52 40 18.56 39.88C18.96 39.84 19.40 39.64 19.80 39.48C19.88 39.48 19.96 39.40 20.04 39.36C20.20 39.28 20.40 38.88 20.28 38.72C20.16 38.52 20 38.48 19.84 38.56C18.44 39.12 17.12 38.96 15.76 38.36C15.52 38.28 15.28 38.16 15.04 38.08C13.04 37.32 11.36 36.16 10 34.48C9.56 33.92 9.12 33.40 8.68 32.84C8.44 32.52 8.52 31.84 8.88 31.72C10.16 31.28 11.20 30.48 12.36 29.92C13.24 29.48 13.96 28.84 14.64 28.16C15.60 27.24 16.32 26.16 16.96 25C17.60 23.84 18.12 22.68 18.76 21.52C19.32 20.40 19.52 19.20 19.80 18C19.84 17.84 19.84 17.64 19.84 17.48C19.56 15.96 19 14.64 17.56 13.88C16.16 13.12 14.68 12.64 13.04 13.12C12.80 13.20 12.52 13.16 12.28 13.24C11.24 13.44 10.20 13.60 9.24 13.96C7.60 14.60 6.04 15.36 4.60 16.40C3.16 17.44 2.08 18.84 1.32 20.40C1.04 20.92 1.16 21.40 1.52 21.88C2.04 22.56 2.76 22.80 3.56 22.92C3.64 22.92 3.72 22.84 3.76 22.80C3.84 22.64 3.96 22.44 3.92 22.36C3.80 22.12 3.60 21.92 3.44 21.72C3 21.20 3 20.64 3.32 20.04C3.96 18.84 4.92 17.92 5.96 17.16C8.04 15.60 10.40 14.80 12.96 14.40C13.48 14.32 14 14.36 14.52 14.40C16.16 14.64 17.52 15.28 18.20 16.96C18.40 17.44 18.48 17.96 18.44 18.48C18.36 19.20 18.24 19.84 17.92 20.48C17.32 21.76 16.72 23 16.08 24.28C15.40 25.68 14.24 26.76 13.24 27.96C13.08 28.16 12.84 28.32 12.60 28.44C11.88 28.88 11.12 29.36 10.36 29.76C9.08 30.36 7.76 30.80 6.32 30.48C6.04 30.44 5.68 29.96 5.76 29.72C5.80 29.36 5.84 29 5.96 28.68C6.20 27.92 6.48 27.20 6.72 26.48C6.84 26.16 6.40 25.56 6 25.52C5.76 25.52 5.44 25.64 5.32 25.80C5.08 26.16 4.88 26.56 4.76 26.96C3.88 29.88 2.88 32.76 1.60 35.56C0.92 36.96 0.44 38.44-0.16 39.92C-0.24 40.16-0.04 40.44 0.24 40.48C0.76 40.64 1.28 40.56 1.68 40.16C2.40 39.52 2.96 38.76 3.48 37.92C3.64 37.60 3.76 37.28 3.88 36.96C4 36.76 3.96 36.60 3.80 36.52C3.64 36.44 3.44 36.44 3.32 36.52C3.08 36.60 2.92 36.84 2.64 36.80ZM36.48 13.08C35.44 13.12 34.40 13.24 33.40 13.52C30.28 14.44 27.60 16.20 24.92 18.04C24.84 18.08 24.80 18.16 24.72 18.24C24.40 18.56 24.32 19.32 24.52 19.68C24.96 20.44 25.52 21.04 26.32 21.40C27.24 21.84 28.20 22.24 29.16 22.60C32 23.64 34.68 25 36.92 27.08C38.12 27.80 38.84 28.92 39.56 30.08C39.80 30.56 39.88 31.08 39.68 31.60C39.40 32.36 39.04 33.08 38.44 33.72C37.76 34.48 36.92 35.12 36.04 35.64C33.96 36.88 31.76 37.76 29.44 38.40C27.72 38.84 26.16 38.52 24.64 37.84C24.00 37.56 23.44 37.04 22.92 36.52C22.56 36.16 22.24 35.72 22.00 35.28C21.76 34.76 22.24 34.32 22.32 33.80C22.36 33.52 22.08 33.24 21.80 33.20C20.88 32.96 20.00 34.40 20.28 35.08C21.12 36.80 22.24 38.24 24.08 38.96C24.28 39.04 24.48 39.12 24.68 39.24C26.12 39.96 27.64 40.04 29.20 39.68C31.84 39.04 34.36 38.08 36.72 36.76C37.72 36.24 38.64 35.56 39.52 34.84C41 33.56 41.40 31.92 41 30.04C40.96 29.84 40.88 29.64 40.76 29.48C39.92 28.16 39.04 26.88 37.76 25.96C37 25.40 36.28 24.80 35.52 24.28C34.08 23.24 32.64 22.24 30.92 21.76C29.92 21.48 28.96 21 28 20.64C27.64 20.48 27.28 20.28 26.92 20.04C26.72 19.96 26.60 19.80 26.44 19.68C26.28 19.52 26.28 18.96 26.40 18.80C27.48 17.60 29 17.12 30.36 16.32C31.68 15.56 33.16 15.08 34.72 14.80C35.60 14.64 36.36 14.80 37.16 15.04C37.92 15.28 38.20 16.20 37.76 16.80C37.64 16.96 37.52 17.12 37.36 17.28C37.12 17.60 36.84 17.92 36.60 18.24C36.36 18.52 36.36 18.92 36.60 19.08C36.88 19.24 37.16 19.20 37.48 19.04C38.24 18.72 38.88 18.24 39.48 17.60C39.96 17.12 39.96 16.52 39.84 15.88C39.68 15.24 39.28 14.76 38.88 14.28C38.28 13.52 37.48 13.08 36.48 13.08ZM56.56 29.60C57.56 28.68 58.32 27.96 59.12 27.24C59.28 27.08 59.40 27.08 59.48 27.28C59.48 27.36 59.52 27.52 59.48 27.56C59.04 28.56 58.64 29.60 58.16 30.52C56.44 33.88 55.08 37.56 53.64 41.16C53.56 41.32 53.56 41.56 53.60 41.76C53.64 41.92 53.76 42.08 53.84 42.20C53.88 42.24 54 42.16 54.08 42.12C54.56 41.72 54.80 41.04 55.04 40.40C56.04 37.92 57 35.40 58.20 33.08C59.72 30.12 61.16 27.16 62.68 24.24C63.16 23.28 63.68 22.36 64.24 21.48C64.96 20.40 65.68 19.28 66.32 18.12C67.08 16.80 67.88 15.52 68.68 14.20C68.92 13.80 69.08 13.32 69.28 12.88C69.36 12.60 69.28 12.20 69.12 12.04C68.92 11.84 68.68 11.72 68.44 11.88C67.92 12.16 67.60 12.80 67.28 13.36C65.96 15.56 64.64 17.76 63.36 20C62.60 21.32 61.72 22.56 60.76 23.64C59.12 25.52 57.40 27.28 55.56 28.92C54.36 29.96 53.08 30.72 51.72 31.16C51.24 31.32 50.80 30.96 50.44 30.52C50.24 30.24 50.16 29.80 50.16 29.36C50.04 26.92 50.40 24.56 51.04 22.32C51.76 19.88 52.52 17.48 53.28 15.04C53.36 14.76 53.40 14.44 53.48 14.16C53.52 13.76 53.32 13.28 53.04 13.16C52.64 12.96 52.24 12.96 51.96 13.40C51.56 14 51.08 14.60 50.80 15.32C50.40 16.24 49.88 17.04 49.36 17.80C48.36 19.36 47.28 20.92 46.28 22.48C44.88 24.64 43.52 26.80 42.44 29.24C41.68 30.92 40.96 32.68 40.36 34.48C39.88 36 39.56 37.64 39.56 39.36C39.56 39.44 39.60 39.56 39.64 39.64C39.68 39.88 39.80 39.96 40 39.92C40.24 39.92 40.48 39.88 40.64 39.60C41.72 37.56 42.84 35.56 43.84 33.44C45.28 30.32 46.76 27.28 48.32 24.24C48.52 23.84 48.76 23.40 49 23C49.04 22.96 49.16 22.88 49.20 22.92C49.28 22.96 49.32 23.08 49.32 23.16C49.32 23.68 49.32 24.24 49.20 24.72C48.88 26.28 48.96 27.84 48.96 29.40C49 30.52 49.40 31.36 50.16 31.92C51 32.48 51.80 32.60 52.64 32.24C54.16 31.60 55.52 30.60 56.56 29.60ZM45.60 26.20C45.56 26.56 45.40 26.80 45.12 26.84C45.08 27.32 45.08 27.84 44.68 28.12C44.64 28.40 44.64 28.76 44.56 29C44 30.24 43.44 31.44 42.88 32.64C42.76 32.88 42.52 32.96 42.32 33.12C42.28 33.24 42.20 33.36 42.16 33.48C42.16 33.40 42.16 33.32 42.20 33.28C42.24 33.24 42.32 33.24 42.36 33.20C42.36 33 42.32 32.76 42.36 32.60C42.88 31.04 43.32 29.48 44.32 28.28C44.40 28.20 44.56 28.20 44.72 28.16C44.68 27.64 44.80 27.20 45.16 26.92C45.20 26.52 45.36 26.32 45.64 26.24C45.68 26.16 45.72 26 45.72 26C45.84 26 45.80 26.08 45.60 26.20ZM76.88 40C77.04 39.84 77.28 39.68 77.40 39.44C77.56 39.16 77.44 38.84 77.20 38.68C76.48 38.28 76.04 37.72 75.84 36.92C75.40 35.20 74.92 33.52 74.48 31.84C74.36 31.48 74.36 31.08 74.36 30.68C74.44 29.76 74.72 28.96 75.48 28.40C75.96 28.08 76.44 27.72 76.92 27.36C79.24 25.64 81.64 23.96 83.88 22.12C85.80 20.56 87.60 18.96 89.36 17.28C89.80 16.84 90.28 16.60 90.88 16.56C91.16 16.52 91.52 16.40 91.68 16.24C92.24 15.56 92.80 14.88 92.92 13.96C92.96 13.64 92.84 13.40 92.64 13.20C92.40 12.96 92.04 12.88 91.84 13.04C90.64 14.28 89.44 15.60 88.16 16.80C86.48 18.40 84.76 19.96 82.92 21.44C81.32 22.72 79.80 24.04 78.08 25.12C77.72 25.36 77.44 25.60 77.12 25.84C75.72 26.72 74.40 27.72 73 28.60C71.64 29.48 70.44 30.64 69.12 31.68C67.56 32.96 65.96 34.24 64.40 35.52C64.32 35.60 64.20 35.64 64.12 35.60C63.92 35.52 63.88 35.32 64 35.12C66.12 31.60 68.16 28.08 70.08 24.48C71.04 22.68 72.04 20.88 73.24 19.24C74.20 17.88 74.80 16.32 75.44 14.80C75.56 14.44 75.56 14.04 75.44 13.64C75.36 13.36 75.12 13.16 74.84 13.04C74.60 12.92 74.24 13.08 74.12 13.36C73.68 14.20 73.16 15.04 72.80 15.96C71.80 18.60 70.40 21.04 69.04 23.52C68.56 24.36 68.08 25.20 67.64 26.08C66.40 28.48 65.04 30.84 63.52 33.12C62.04 35.40 60.84 37.84 59.40 40.16C59.28 40.40 59.28 40.80 59.48 40.96C59.64 41.08 59.84 41.20 60 41.20C60.80 41.20 61.56 40.96 61.96 40.20C62.32 39.60 62.80 39.08 63.32 38.64C64.12 37.96 64.92 37.24 65.56 36.36C65.84 36 66.24 35.68 66.60 35.36C67.80 34.36 69 33.36 70.20 32.36C70.64 32 71.16 31.72 71.68 31.44C71.84 31.32 72.36 31.48 72.44 31.68C72.56 32.12 72.72 32.60 72.88 33.04C73.40 34.60 73.92 36.20 74.40 37.76C74.72 38.76 75.40 39.40 76.24 39.96C76.40 40.04 76.60 40 76.88 40Z" fill="black"></path></svg>