<svg xmlns="http://www.w3.org/2000/svg" version="1.1" xmlns:xlink="http://www.w3.org/1999/xlink" width="490.58821604463566" height="200" viewBox="-0.8799999952316284 12.680000305175781 90.07999420166016 30.799999237060547"><path d="M24.56 18.84L24.56 18.84Q24.56 20.16 22.40 22.36L22.40 22.36Q20.56 24.28 19 25.08L19 25.08Q13.16 28.20 9.52 29.16L9.52 29.16Q9.76 30.08 11.32 32.28L11.32 32.28Q12.76 34.32 13.64 35.20L13.64 35.20Q14.36 35.92 15.16 36.56Q15.96 37.20 16.84 37.76L16.84 37.76Q19.04 39.12 20.60 39.12L20.60 39.12Q20.84 39.12 21.32 38.94Q21.80 38.76 22 38.76L22 38.76Q22.24 38.76 22.24 39.04L22.24 39.04Q21.68 39.44 20.48 40L20.48 40Q18.92 40 17 39.12L17 39.12Q15.20 38.36 13.88 37.24L13.88 37.24Q11.84 35.52 8.44 31.68L8.44 31.68Q7.24 29.92 6.88 29.92L6.88 29.92Q6.28 29.92 6.08 32.04L6.08 32.04Q6.08 32.72 6.08 33.40L6.08 33.40Q6.08 34.08 6.04 34.76L6.04 34.76Q6 35.56 5.98 35.94Q5.96 36.32 5.96 36.36L5.96 36.36Q5.96 38.36 6.44 40.92L6.44 40.92Q6.28 41.44 5.88 41.44L5.88 41.44Q5.24 41.44 4.84 40.56L4.84 40.56Q4.48 39.92 4.48 39.20L4.48 39.20Q4.44 37.68 4.50 35.50Q4.56 33.32 4.68 30.44L4.68 30.44Q4.84 27.40 4.90 25.22Q4.96 23.04 4.96 21.64L4.96 21.64Q4.96 21.36 5 20.80Q5.04 20.24 5.12 19.36L5.12 19.36Q5.20 18.48 5.24 17.98Q5.28 17.48 5.28 17.32L5.28 17.32Q4.64 17.32 2.20 18.48L2.20 18.48Q-0.16 19.64-0.16 20.08L-0.16 20.08Q-0.16 20.20 0.08 20.44L0.08 20.44Q-0.12 20.64-0.32 20.64L-0.32 20.64Q-0.88 20.64-0.88 19.80L-0.88 19.80Q-0.88 18.60 2.04 17.24L2.04 17.24L5.16 15.80Q5.32 15.52 5.28 14.60L5.28 14.60Q5.24 14.12 5.26 13.82Q5.28 13.52 5.32 13.36L5.32 13.36Q6.40 13.56 6.68 13.72L6.68 13.72Q7.20 14.04 7.36 14.92L7.36 14.92Q14.48 13.64 17.20 13.64L17.20 13.64Q19.76 13.64 22 14.92L22 14.92Q24.56 16.40 24.56 18.84ZM22.08 18.04L22.08 18.04Q22.08 14.92 17.28 14.92L17.28 14.92Q13.12 14.92 7.36 16.68L7.36 16.68Q7.24 18.64 7.08 20.58Q6.92 22.52 6.72 24.56L6.72 24.56Q6.56 25.92 6.50 26.88Q6.44 27.84 6.44 28.40L6.44 28.40Q8.12 28.20 11.04 27.28L11.04 27.28Q12.44 26.84 13.56 26.40Q14.68 25.96 15.52 25.52L15.52 25.52Q17.84 24.40 19.76 22.48L19.76 22.48Q22.08 20.16 22.08 18.04ZM38.36 37.48L38.36 37.48Q38.36 39.36 36.24 40.32L36.24 40.32Q34.52 41.12 32.44 41.12L32.44 41.12Q26.72 41.12 22.20 38.76L22.20 38.76Q21.28 38.28 21.28 37.60L21.28 37.60Q21.28 37.20 21.72 37L21.72 37Q21.84 37.08 22.10 37.34Q22.36 37.60 22.80 38.04L22.80 38.04Q23 38.24 25.48 38.84L25.48 38.84Q28.88 39.68 31.92 39.68L31.92 39.68Q36.24 39.68 36.24 37.20L36.24 37.20Q36.24 35.76 35.12 35.28L35.12 35.28L25.92 31.32Q23.16 30.12 23.16 26.52L23.16 26.52Q23.16 22.92 26.48 16.20L26.48 16.20Q28.12 13 30.16 13L30.16 13Q32.52 13 34.48 14.84L34.48 14.84Q36.52 16.68 36.68 19L36.68 19Q36.76 20.36 36.82 21.62Q36.88 22.88 36.88 24.12L36.88 24.12Q36.88 26.52 36 26.52L36 26.52Q35.08 26.52 35.08 25.16L35.08 25.16Q35.08 22.28 34.72 18.80L34.72 18.80Q34.52 17.28 33.60 15.92L33.60 15.92Q32.52 14.28 31.16 14.28L31.16 14.28Q29.20 14.28 27.12 19.48L27.12 19.48Q25.28 24 25.28 26.52L25.28 26.52Q25.28 27.84 26.02 29.02Q26.76 30.20 27.96 30.68L27.96 30.68L35.12 33.68Q38.36 35.08 38.36 37.48ZM69.56 42.64L69.56 42.64Q69.12 43.48 68.72 43.48L68.72 43.48Q66.44 43.48 65.36 37.48L65.36 37.48Q64.64 33.60 64.64 29.76L64.64 29.76Q64.64 27.36 64.76 24.04L64.76 24.04Q64.80 22.88 64.82 22.06Q64.84 21.24 64.80 20.68L64.80 20.68Q64.64 21.04 64.28 22.20L64.28 22.20Q63.84 23.80 63.16 26.14Q62.48 28.48 61.56 31.64L61.56 31.64Q58.92 40 56.76 40L56.76 40Q53.92 40 52.60 31.56L52.60 31.56Q52.40 29.96 52.10 27.60Q51.80 25.24 51.36 22.08L51.36 22.08Q50.92 22.52 49.24 27.84L49.24 27.84Q47.32 33.88 45.60 36.92L45.60 36.92Q42.92 41.64 39.56 41.64L39.56 41.64Q37.56 41.64 36.20 39.84L36.20 39.84L36.48 39.64Q37.88 39.92 38.72 40.04Q39.56 40.16 39.76 40.16L39.76 40.16Q41.04 40.16 42.44 38.92L42.44 38.92Q43.56 37.92 44.36 36.52L44.36 36.52Q46.64 32.48 48.52 26.28L48.52 26.28Q50.48 19.80 50.48 15.48L50.48 15.48Q50.48 13.68 51.68 13.68L51.68 13.68Q52.48 13.68 54.12 14.88L54.12 14.88Q53.72 15.84 53.72 20.48L53.72 20.48Q53.72 23.72 53.90 26.52Q54.08 29.32 54.48 31.80L54.48 31.80Q55.44 37.96 57.12 37.96L57.12 37.96Q58.28 37.96 60.88 30.28L60.88 30.28Q62.04 26.84 62.84 23.94Q63.64 21.04 64.08 18.64L64.08 18.64Q64.12 18.36 64.12 17.68L64.12 17.68Q64.12 17 64.16 15.88L64.16 15.88Q64.20 14.56 64.68 14.40L64.68 14.40Q68 14.40 68.12 15.44L68.12 15.44Q67.56 16.68 66.96 23.24L66.96 23.24Q66.68 26.16 66.56 28.26Q66.44 30.36 66.44 31.64L66.44 31.64Q66.44 41.80 69.56 42.64ZM89.20 15.52L89.20 15.52Q88.28 17.16 86.32 19L86.32 19Q86 19.32 85.10 20.08Q84.20 20.84 82.76 22.08L82.76 22.08Q80.96 23.60 79.10 24.98Q77.24 26.36 75.32 27.64L75.32 27.64Q72.44 29.52 72.44 29.60L72.44 29.60Q72.44 31.12 78.40 34.32L78.40 34.32Q84.04 37.28 86.16 37.52L86.16 37.52Q86.48 37.56 86.76 37.56L86.76 37.56Q87.08 37.56 87.40 37.56L87.40 37.56Q88.28 37.60 88.36 38L88.36 38Q88.36 38 88.22 38.16Q88.08 38.32 87.76 38.64L87.76 38.64Q87.24 39.28 86.88 39.28L86.88 39.28Q86.44 39.28 83.32 38L83.32 38Q81.12 37.08 78.40 35.76Q75.68 34.44 72.36 32.64L72.36 32.64Q72.36 34.60 72.36 35.80L72.36 35.80Q72.36 36.96 72.40 37.36L72.40 37.36Q72.48 39.12 73.00 39.72L73.00 39.72Q73.00 40.08 72.28 40.08L72.28 40.08Q70.76 40.08 70.68 36.64L70.68 36.64L70.68 34.20Q70.72 33.28 70.72 32.68L70.72 32.68Q70.72 32.04 70.72 31.72L70.72 31.72Q69.44 31 68.92 30.16L68.92 30.16L69.20 29.24Q69.52 29.12 69.96 28.88Q70.40 28.64 71.00 28.32L71.00 28.32Q71.00 27.72 71.10 26.42Q71.20 25.12 71.40 23.08L71.40 23.08Q71.60 21.24 71.66 19.92Q71.72 18.60 71.68 17.80L71.68 17.80L71.52 14.60Q72.76 12.68 73.28 12.68L73.28 12.68Q74.28 12.68 74.28 13.96L74.28 13.96Q74.28 12.92 74.16 13.18Q74.04 13.44 73.84 15L73.84 15Q73.64 16.32 73.44 18.08Q73.24 19.84 73.04 22.08L73.04 22.08Q72.84 24.32 72.72 25.66Q72.60 27 72.60 27.52L72.60 27.52Q73.76 26.76 74.68 26.18Q75.60 25.60 76.28 25.16L76.28 25.16Q79.92 22.72 82.40 20.48L82.40 20.48Q86.96 16.40 88.24 13.88L88.24 13.88Q88.60 13.88 88.88 14.48Q89.16 15.08 89.20 15.52Z" fill="black"></path></svg>