<?xml version="1.0" encoding="UTF-8"?>
<svg version="1.1" xmlns="http://www.w3.org/2000/svg" width="820" height="200">
<path d="M0 0 C3.25325682 2.92793114 3.90213811 6.44366715 4.265625 10.6796875 C3.78774277 14.8541293 1.16798184 17.43001923 -2 20 C-5.4645884 22.04633584 -7.97933255 22.18275761 -12 22 C-12 21.34 -12 20.68 -12 20 C-9.03 19.01 -6.06 18.02 -3 17 C-2.35437203 10.33044029 -2.35437203 10.33044029 -5.1875 4.5625 C-9.86742553 0.29856785 -14.71623228 -0.90907732 -21 -1 C-29.72437889 -0.29714083 -39.01157462 1.2247307 -46.15234375 6.62890625 C-48 8 -48 8 -50 8 C-52.30096674 11.68154678 -53.16696966 15.69218286 -53 20 C-48.85329903 29.42432038 -37.37786207 33.36585227 -28.5625 37.3125 C-9.32592005 46.25204924 -9.32592005 46.25204924 -4.8125 55.9375 C-3.03125923 62.39609963 -4.03097248 68.66386679 -7.0625 74.5625 C-12.45443962 83.29744219 -19.28507704 89.6585956 -28 95 C-28.74636719 95.46277344 -29.49273437 95.92554687 -30.26171875 96.40234375 C-45.84108615 105.10457104 -66.58445813 106.63607052 -83.8125 102.8125 C-93.04448677 99.97392935 -102.28983968 94.79844416 -107.4375 86.375 C-109 83 -109 83 -109 79 C-109.66 79 -110.32 79 -111 79 C-111.20625 79.825 -111.4125 80.65 -111.625 81.5 C-114.35869443 88.45849491 -119.21758104 94.60879052 -126 98 C-132.42156876 98.75675053 -137.82636602 98.61746155 -143.16015625 94.734375 C-154.69080659 83.86471735 -158.584298 67.64313549 -163 53 C-163.556875 54.02738281 -164.11375 55.05476563 -164.6875 56.11328125 C-169.29871256 64.52292039 -174.07951437 72.43141344 -180 80 C-180.6290625 80.84046875 -181.258125 81.6809375 -181.90625 82.546875 C-188.60760762 90.39846565 -198.75469318 96.41353425 -209 98 C-227.01823928 99.04921438 -227.01823928 99.04921438 -233.5859375 93.7109375 C-236.15698011 91.05466695 -236.98852219 89.08177942 -237.5 85.4375 C-236.96024433 81.72667978 -236.39398482 79.87278179 -234 77 C-229.50619343 74.27747485 -226.16295353 73.61358172 -220.9375 73.6875 C-219.75027344 73.69136719 -218.56304687 73.69523437 -217.33984375 73.69921875 C-214.14395473 73.98703566 -211.88011418 74.63344299 -209 76 C-209 76.66 -209 77.32 -209 78 C-209.65226562 77.90460938 -210.30453125 77.80921875 -210.9765625 77.7109375 C-216.14062401 77.05590905 -220.18875797 76.59437898 -225 79 C-227.35618542 81.88599388 -227.35618542 81.88599388 -226.8125 85.5 C-226.2256938 88.84148918 -226.2256938 88.84148918 -224.875 90.875 C-219.78780687 93.92731588 -214.07063022 93.11142449 -208.546875 91.84765625 C-188.35084136 85.12597021 -176.92481849 59.75494816 -167.37890625 42.46484375 C-166.89484314 41.58835175 -166.89484314 41.58835175 -166.40100098 40.69415283 C-164.78501555 37.7654412 -163.17690455 34.83301806 -161.57958984 31.89404297 C-157.93821389 25.25422908 -154.06027208 18.89472263 -149.78149414 12.64526367 C-148.09642591 10.14317867 -146.52759313 7.60052793 -145 5 C-167.77734203 4.28239413 -194.97983604 4.74932161 -212.98046875 20.76171875 C-217.25935604 25.46321219 -220.08467395 30.67734233 -220.375 37.125 C-219.98593411 41.14534756 -219.60713311 42.9583447 -217 46 C-214.13499526 48.1662231 -212.18302606 49.07773088 -208.5625 48.83984375 C-203.94351572 48.02189862 -199.62927072 47.09555444 -196 44 C-194.46568535 41.73352117 -193.26489235 39.44255075 -192 37 C-191.34 36.01 -190.68 35.02 -190 34 C-189.67 34.33 -189.34 34.66 -189 35 C-189.32069208 40.45176541 -190.46273077 43.82783629 -194 48 C-199.40390004 52.63013144 -204.91091831 54.35170638 -212 54 C-218.3326907 53.02103332 -222.0061803 50.65868378 -225.90625 45.62109375 C-229.11621549 40.86346633 -228.57582467 35.54398637 -228 30 C-224.86964664 19.7605264 -217.71270995 13.18650329 -208.5 8.25 C-195.69895242 2.00299109 -181.57048011 -0.2764483 -167.421875 0.0078125 C-165.8333395 0.02530866 -164.24479745 0.04221883 -162.65625 0.05859375 C-160.19186847 0.08964496 -157.7278228 0.12541375 -155.26367188 0.17138672 C-152.85803031 0.21376639 -150.45278792 0.23715589 -148.046875 0.2578125 C-147.31345886 0.27643341 -146.58004272 0.29505432 -145.82440186 0.3142395 C-141.34737432 0.33660964 -138.6059595 -0.32065748 -135 -3 C-134.505 -0.525 -134.505 -0.525 -134 2 C-133.12601563 2.02126953 -133.12601563 2.02126953 -132.234375 2.04296875 C-122.79801469 2.5919394 -114.11739004 5.66662539 -107 12 C-104.00881973 16.48677041 -104.42427965 20.74276421 -105 26 C-108.05315969 33.07777929 -115.35089153 38.24770534 -122.15625 41.515625 C-125.40875669 42.80113955 -128.66866034 43.93654937 -132 45 C-132.95261719 45.3196875 -133.90523438 45.639375 -134.88671875 45.96875 C-141.34506152 47.95876717 -147.26687947 48.35163299 -154 48 C-151.31468219 57.92753858 -148.56534002 67.65464699 -143.9375 76.875 C-143.62167969 77.50921875 -143.30585938 78.1434375 -142.98046875 78.796875 C-140.63084575 83.28426975 -137.67393152 88.66303424 -133 91 C-127.43717915 91.48972258 -127.43717915 91.48972258 -122.375 89.5625 C-119.0778454 86.00504373 -116.56980953 82.09981174 -114 78 C-113.4225 77.195625 -112.845 76.39125 -112.25 75.5625 C-111.01868127 73.03829661 -110.63668885 71.18496581 -110.1875 68.4375 C-108.31541055 58.14100802 -102.67191015 47.84229355 -94.10546875 41.625 C-91.26122537 39.90049033 -89.35992184 39 -86 39 C-87.38928664 42.10870081 -89.04135207 44.28387424 -91.375 46.75 C-98.28022226 54.4878686 -101.28047676 63.15494658 -101.3125 73.5625 C-101.33763672 75.45162109 -101.33763672 75.45162109 -101.36328125 77.37890625 C-100.97361143 81.26303448 -99.93136377 83.64217213 -98 87 C-97.690625 87.7425 -97.38125 88.485 -97.0625 89.25 C-95.68131646 91.52489053 -94.41101613 91.88786175 -92 93 C-91.16726563 93.4021875 -90.33453125 93.804375 -89.4765625 94.21875 C-73.90673142 101.21450972 -58.70103704 101.03783435 -42.6875 95.875 C-31.05603946 91.35239106 -23.05018696 84.42534275 -17.125 73.5625 C-15.30419426 67.79661515 -15.45408376 63.14727054 -16.9375 57.3125 C-21.88392095 49.36824817 -31.85643703 46.03766313 -40.125 42.4375 C-58.15002668 34.58072203 -58.15002668 34.58072203 -63 26 C-64.47318016 21.58045952 -64.82276301 17.96954851 -62.98828125 13.578125 C-59.60759188 7.20253063 -59.60759188 7.20253063 -56 6 C-56 5.34 -56 4.68 -56 4 C-42.18219129 -7.694961 -15.01415483 -10.41798498 0 0 Z M-137 6 C-137.61746094 7.05316406 -138.23492187 8.10632813 -138.87109375 9.19140625 C-139.7265242 10.64845999 -140.58199608 12.1054894 -141.4375 13.5625 C-141.88544922 14.32667236 -142.33339844 15.09084473 -142.79492188 15.87817383 C-145.03378601 19.68951725 -147.28794267 23.48891278 -149.59765625 27.2578125 C-150.00250244 27.92095459 -150.40734863 28.58409668 -150.82446289 29.26733398 C-151.58813314 30.51474137 -152.35659257 31.75923393 -153.13061523 33.00024414 C-155.30744338 36.56392653 -156.83220759 39.99179585 -158 44 C-143.64506442 43.63977577 -130.96546893 41.69612008 -120.1796875 31.234375 C-116.49310194 27.13816882 -113.94379414 23.6978813 -114.0625 18 C-115.56222394 13.20088338 -118.53564734 10.97623511 -122.625 8.25 C-127.34694569 6.50113123 -131.99887499 6.25806517 -137 6 Z " fill="#000000" transform="translate(376,29)"/>
<path d="M0 0 C4.32264209 3.42907267 6.03544332 6.98221151 7.51171875 12.19921875 C8.70352094 23.67377939 6.34259066 34.16640099 3.51171875 45.19921875 C4.12917969 44.17183594 4.74664062 43.14445312 5.3828125 42.0859375 C22.2932592 14.2720386 22.2932592 14.2720386 34.51171875 10.19921875 C39.15968094 9.66827176 42.47516159 9.55137052 46.51171875 12.07421875 C50.23755176 16.03291632 49.78276197 19.4203465 49.7265625 24.671875 C48.96878351 37.11322828 44.96408262 49.28651654 41.51171875 61.19921875 C42.25035156 60.20664063 42.98898437 59.2140625 43.75 58.19140625 C49.8071349 50.07233214 55.94500844 42.03042201 62.234375 34.08984375 C63.59617255 32.36131855 64.92827197 30.6077325 66.1953125 28.80859375 C66.62972656 28.2775 67.06414062 27.74640625 67.51171875 27.19921875 C68.17171875 27.19921875 68.83171875 27.19921875 69.51171875 27.19921875 C69.51171875 26.53921875 69.51171875 25.87921875 69.51171875 25.19921875 C75.6024264 19.53743418 82.65512091 13.14271494 91.26171875 12.69921875 C94.08579797 12.857983 95.2236818 12.99846572 97.57421875 14.63671875 C100.80132612 23.45747889 96.94383941 31.68871203 93.35864258 39.81176758 C92.15258628 42.40594997 90.92723302 44.99036628 89.69921875 47.57421875 C77.23572612 73.30417012 77.23572612 73.30417012 77.82421875 100.82421875 C80.41573255 104.47153446 82.97509728 105.46715063 87.19921875 106.32421875 C88.00746094 106.49179688 88.81570313 106.659375 89.6484375 106.83203125 C90.26332031 106.95320313 90.87820313 107.074375 91.51171875 107.19921875 C91.51171875 107.85921875 91.51171875 108.51921875 91.51171875 109.19921875 C83.80005063 109.93756995 77.83369699 108.87148369 71.51171875 104.19921875 C67.32650915 99.91692954 67.16089488 94.57620549 66.88671875 88.82421875 C67.08998073 72.43598455 75.47458831 57.23932201 82.01635742 42.56787109 C82.29664291 41.9359938 82.57692841 41.30411652 82.8657074 40.65309143 C83.63537034 38.92102313 84.41075735 37.19150161 85.18652344 35.4621582 C87.14877878 30.63062861 88.51171875 26.43522869 88.51171875 21.19921875 C82.72704217 21.435328 80.13111571 22.89660157 75.9921875 26.921875 C74.51171875 28.19921875 74.51171875 28.19921875 72.51171875 28.19921875 C72.26679687 28.7715625 72.021875 29.34390625 71.76953125 29.93359375 C70.29573701 32.58825419 68.53964376 34.30359179 66.38671875 36.44921875 C52.94844221 50.96021693 42.54553938 69.2385456 33.11328125 86.59375 C32.70972412 87.33044922 32.30616699 88.06714844 31.89038086 88.82617188 C31.11723413 90.2447432 30.35436915 91.66898503 29.60375977 93.09960938 C28.13088677 95.81158777 26.95314433 97.89274095 24.390625 99.671875 C22.09180845 100.31707299 20.73613348 99.99365258 18.51171875 99.19921875 C17.22870189 94.88670808 17.77975233 92.82806769 19.828125 88.875 C20.34238037 87.85591553 20.85663574 86.83683105 21.38647461 85.78686523 C21.94343018 84.70606689 22.50038574 83.62526855 23.07421875 82.51171875 C30.20884964 68.1133 34.99101807 54.38949096 38.38671875 38.69921875 C38.71047485 37.21216431 38.71047485 37.21216431 39.04077148 35.69506836 C41.38313726 25.31235625 41.38313726 25.31235625 39.51171875 15.19921875 C34.71970991 14.61482743 32.22453298 15.66968825 28.40063477 18.53344727 C24.81494167 21.69554938 22.07481565 25.48005892 19.26171875 29.32421875 C18.60695557 30.21310791 17.95219238 31.10199707 17.27758789 32.01782227 C3.89069718 50.49621721 -5.79329228 71.175105 -15.16943359 91.90332031 C-15.70133301 93.07604492 -16.23323242 94.24876953 -16.78125 95.45703125 C-17.25457764 96.51293457 -17.72790527 97.56883789 -18.21557617 98.65673828 C-19.48828125 101.19921875 -19.48828125 101.19921875 -21.48828125 103.19921875 C-24.1766751 103.46913781 -26.77970061 103.28659232 -29.48828125 103.19921875 C-30.21988003 97.88990187 -27.64322454 94.38464627 -25.11328125 89.94921875 C-13.43006483 68.55759119 -1.52445699 41.93195134 -1.17578125 17.19921875 C-1.14677734 16.5134375 -1.11777344 15.82765625 -1.08789062 15.12109375 C-1.0240726 9.97637904 -2.283295 7.16501482 -5.48828125 3.19921875 C-8.40103078 0.91062983 -11.50690358 0.77570503 -15.1640625 0.890625 C-30.91772104 2.98228723 -44.98570574 14.18877267 -54.87890625 26.0703125 C-63.90083365 38.11625631 -68.63785543 50.0290468 -66.48828125 65.19921875 C-64.874274 69.76234956 -62.66228305 72.75899953 -58.625 75.43359375 C-53.66164864 77.70141762 -48.67307173 77.7599465 -43.48828125 76.19921875 C-35.11789147 72.30504735 -30.24865579 66.00024022 -27.11328125 57.44921875 C-26.29483211 53.19328321 -26.11562356 50.31719183 -27.48828125 46.19921875 C-31.11828125 45.53921875 -34.74828125 44.87921875 -38.48828125 44.19921875 C-38.15828125 43.20921875 -37.82828125 42.21921875 -37.48828125 41.19921875 C-27.75682109 40.27890553 -27.75682109 40.27890553 -23.30078125 43.51171875 C-20.39905051 48.02906514 -20.61795742 53.06778945 -21.48828125 58.19921875 C-25.01992146 68.24637477 -31.36129344 74.95205535 -40.48828125 80.19921875 C-47.61484395 82.57473965 -56.14084656 82.30505671 -62.98828125 79.19921875 C-68.74955087 75.85427109 -71.93224232 71.31129662 -74.86328125 65.44921875 C-77.32441844 52.65130536 -74.4555155 41.27505112 -67.6953125 30.31640625 C-54.89655775 12.23958095 -23.42523208 -14.48197645 0 0 Z " fill="#000000" transform="translate(455.48828125,26.80078125)"/>
<path d="M0 0 C0.99 0 1.98 0 3 0 C1.24112662 16.32900013 -21.24352522 35.84607072 -33.55078125 45.98046875 C-36.45196881 48.30783858 -39.40413505 50.56170555 -42.38476562 52.78613281 C-43.86142501 53.8958593 -45.31487398 55.03629899 -46.765625 56.1796875 C-51.98611544 60.1966517 -57.38484225 63.41548584 -63.25 66.375 C-63.91177246 66.70910889 -64.57354492 67.04321777 -65.25537109 67.38745117 C-69.43017389 69.42043047 -73.50171017 70.84629354 -78 72 C-75.79815536 81.90322749 -73.53321357 91.62271513 -69.4375 100.9375 C-69.15704834 101.58009766 -68.87659668 102.22269531 -68.58764648 102.88476562 C-65.56923509 109.44873772 -62.01063487 113.73803369 -55.62109375 117.04296875 C-48.885014 119.50249116 -42.17360738 118.89804798 -35.6875 116 C-31.33488844 113.56786439 -28.3972842 110.50464123 -25.375 106.57421875 C-24.92125 106.05472656 -24.4675 105.53523438 -24 105 C-23.34 105 -22.68 105 -22 105 C-22.79627794 111.28174818 -26.47543674 114.82348007 -31 119 C-33.8894471 120.94464376 -36.84467322 122.53362407 -40 124 C-40.99 124.495 -40.99 124.495 -42 125 C-52.37490163 126.04810387 -60.25731813 125.15421413 -69 119 C-81.76512301 108.24287387 -85.56303936 89.71198304 -88 74 C-88.4846875 75.02738281 -88.969375 76.05476563 -89.46875 77.11328125 C-93.5995387 85.71527394 -97.97871206 93.53883886 -104 101 C-104.59039063 101.77730469 -105.18078125 102.55460937 -105.7890625 103.35546875 C-115.51601339 115.3796357 -129.80720039 122.24922924 -145 124 C-160.20713354 125.01497554 -173.1068961 121.88867029 -185.375 112.625 C-191.69533078 106.30466922 -194.93591943 99.22990579 -195.375 90.25 C-195.21107227 82.58052407 -192.58819518 74.41885593 -187 69 C-183.54601023 66.43164864 -181.29704625 65.63168175 -177 66 C-177 66.66 -177 67.32 -177 68 C-177.886875 68.53625 -178.77375 69.0725 -179.6875 69.625 C-184.54774002 72.67704646 -187.21950933 77.65852799 -189 83 C-189.84384566 91.59517084 -189.44823804 99.00598279 -184 106 C-175.29980376 113.8070202 -165.00495894 116.25674553 -153.58984375 115.890625 C-135.40874429 114.28472347 -120.44711582 104.02988037 -108.82421875 90.28515625 C-97.22007547 75.74891681 -90.00789095 59.0591781 -82.6640625 42.09765625 C-79.28678911 34.31381032 -75.67164933 26.64839273 -72 19 C-73.485 19.495 -73.485 19.495 -75 20 C-76.76424511 20.23635565 -78.53353224 20.43598527 -80.3046875 20.61328125 C-105.04843272 22.60759618 -105.04843272 22.60759618 -124.87890625 36.27734375 C-129.78097225 43.37648029 -131.90035827 49.34270893 -131 58 C-129.8344511 61.26353691 -128.99075527 63.19271793 -126.3125 65.375 C-122.80161447 66.32388798 -119.56555815 66.66639526 -116 66 C-110.41960985 62.42012707 -107.78210241 58.41281052 -106.3125 52 C-105.99738416 48.97488793 -105.92763817 46.03919669 -106 43 C-103 44 -103 44 -102 46 C-101.17876197 52.48912674 -102.19111596 57.64886844 -106 63 C-109.50611895 66.69361195 -113.45136865 69.70355799 -118.5859375 70.30078125 C-124.1135481 70.3240065 -128.34677381 70.32373299 -133 67 C-138.78214199 60.95503337 -140.48912342 56.05673883 -140.3125 47.84375 C-139.4969781 40.42250075 -135.57704021 33.87850184 -130 29 C-116.08206227 18.82506253 -99.03460151 16.66791534 -82.234375 15.71875 C-73.90572099 15.46355489 -73.90572099 15.46355489 -66.5546875 12.12890625 C-64.80080931 9.98984938 -64.80080931 9.98984938 -63.390625 7.77734375 C-61.69843013 5.6145666 -60.74489418 5.34321973 -58.0625 5 C-57.051875 5 -56.04125 5 -55 5 C-54.01 6.65 -53.02 8.3 -52 10 C-54.21467638 14.55239034 -56.35351321 16.08674073 -61 18 C-62.46759766 18.29197266 -62.46759766 18.29197266 -63.96484375 18.58984375 C-68.27098477 20.59050901 -69.16966049 23.65509233 -70.75 27.875 C-71.23436523 29.09183472 -71.23436523 29.09183472 -71.72851562 30.33325195 C-76.46797865 42.43070901 -80.72308292 54.73290418 -85 67 C-79.24388602 66.50597721 -75.10323721 64.88942719 -70.0625 62.125 C-69.3295874 61.72933838 -68.5966748 61.33367676 -67.84155273 60.92602539 C-52.16708177 52.27358309 -38.03564168 41.2232756 -25 29 C-24.4956543 28.52965332 -23.99130859 28.05930664 -23.47167969 27.57470703 C-14.81910586 19.44086633 -7.8039211 10.71246752 -1 1 C-0.67 0.67 -0.34 0.34 0 0 Z M-60 10 C-61.70532323 11.94009522 -61.70532323 11.94009522 -63 14 C-61.05925139 13.72382467 -61.05925139 13.72382467 -59 13 C-58.34 12.01 -57.68 11.02 -57 10 C-57.99 10 -58.98 10 -60 10 Z " fill="#000000" transform="translate(736,19)"/>
</svg>
